<svg xmlns="http://www.w3.org/2000/svg" width="152" height="146.473" viewBox="0 0 152 146.473">
  <g id="Group_273" data-name="Group 273" transform="translate(-748 -60.527)">
    <g id="Group_2" data-name="Group 2" transform="translate(1559 581)">
      <path id="Path_922" data-name="Path 922" d="M23.976,27.53c.067,14.289-.149,99.342,0,108.979,14.817.031,6.988.126,11.3,0-.194-8.246.221-87.013.208-94.111,7.125.036,29.39,7.742,46.038,28.851,14.043,17.973,20.652,43.736,20.778,51.962-5.838.174-55.783-.119-72.813,0-.07,3.891.047,8.1,0,13.3,10.9.2,53.624.112,84.437,0-.226-13.539-2.766-46.594-24.477-73.832C67.719,33.291,38.267,27.369,23.976,27.53Z" transform="translate(-833.809 -548)" fill="#f90a58"/>
      <path id="Path_923" data-name="Path 923" d="M23.987,27.53c.027,5.432.04,8.248,0,12.928,20.845.507,40.92,9.683,57.579,30.791,14.051,17.973,20.664,43.736,20.79,51.962-5.841.174-18.791-.155-35.831-.036.4,4.3.705,10.063.64,13.392,2.563.037,15.991.054,46.822-.058-.226-13.539-2.767-46.594-24.492-73.832C67.757,33.291,38.287,27.369,23.987,27.53Z" transform="translate(-783.809 -548)" fill="#f90a58"/>
    </g>
    <g id="Group_3" data-name="Group 3" transform="translate(906 758)">
      <text id="Vida_Viva_" data-name="Vida Viva " transform="translate(-82 -555)" fill="#232323" font-size="30" font-family="HiraginoSans-W4, Hiragino Sans"><tspan x="-75.42" y="0">Vida Viva </tspan></text>
    </g>
  </g>
</svg>
